<svg width="219" height="43" viewBox="0 0 219 43" fill="none" xmlns="http://www.w3.org/2000/svg">
<g clip-path="url(#clip0_18_195)">
<g clip-path="url(#clip1_18_195)">
<g clip-path="url(#clip2_18_195)">
<g clip-path="url(#clip3_18_195)">
<g clip-path="url(#clip4_18_195)">
<g clip-path="url(#clip5_18_195)">
<g clip-path="url(#clip6_18_195)">
<g clip-path="url(#clip7_18_195)">
<path d="M10.1036 5.50789C11.1464 5.50789 12.0752 5.74536 12.8899 6.22031C13.7046 6.69848 14.3401 7.35275 14.7964 8.1831C15.2526 9.01668 15.4807 9.95041 15.4807 10.9843V11.2993C15.4807 12.3332 15.2526 13.2702 14.7964 14.1102C14.3401 14.9503 13.7046 15.6078 12.8899 16.0827C12.0752 16.5609 11.1464 16.8 10.1036 16.8H6.07068V22.1795H0.669067V5.50789H10.1036ZM6.07068 9.4577V12.8986H8.29487C8.86518 12.8986 9.29372 12.7532 9.58051 12.4625C9.86403 12.1717 10.0058 11.7759 10.0058 11.2751V11.0812C10.0058 10.5643 9.86403 10.1637 9.58051 9.87933C9.29372 9.59824 8.86518 9.4577 8.29487 9.4577H6.07068ZM34.2764 10.6208C34.2764 11.6386 33.9994 12.5594 33.4454 13.3833C32.8914 14.2072 32.0848 14.813 31.0256 15.2007L34.7652 22.1795H28.7037L25.7218 16.0973H23.7176V22.1795H18.316V5.50789H28.6059C29.8117 5.50789 30.8415 5.73728 31.6953 6.19607C32.5524 6.6581 33.1961 7.28005 33.6262 8.06194C34.0597 8.84705 34.2764 9.70002 34.2764 10.6208ZM28.777 10.8389C28.777 10.4027 28.6304 10.0393 28.3371 9.74848C28.0438 9.4577 27.6853 9.31231 27.2616 9.31231H23.7176V12.3898H27.2616C27.6853 12.3898 28.0438 12.2395 28.3371 11.9391C28.6304 11.6418 28.777 11.2751 28.777 10.8389ZM45.2751 5.2171C48.1756 5.2171 50.416 5.95214 51.9966 7.42221C53.5772 8.89228 54.3675 11.0328 54.3675 13.8437C54.3675 16.6546 53.5772 18.7951 51.9966 20.2652C50.416 21.7352 48.1756 22.4703 45.2751 22.4703C42.3747 22.4703 40.1375 21.7385 38.5635 20.2749C36.9927 18.8145 36.2073 16.6707 36.2073 13.8437C36.2073 11.0166 36.9927 8.87128 38.5635 7.40767C40.1375 5.94729 42.3747 5.2171 45.2751 5.2171ZM45.2751 9.21538C44.1182 9.21538 43.2383 9.5627 42.6354 10.2574C42.0325 10.952 41.7311 11.889 41.7311 13.0683V14.6191C41.7311 15.7984 42.0325 16.7354 42.6354 17.43C43.2383 18.1247 44.1182 18.472 45.2751 18.472C46.432 18.472 47.3152 18.1247 47.9246 17.43C48.5373 16.7354 48.8436 15.7984 48.8436 14.6191V13.0683C48.8436 11.889 48.5373 10.952 47.9246 10.2574C47.3152 9.5627 46.432 9.21538 45.2751 9.21538Z" fill="#3559C1"/>
</g>
<g clip-path="url(#clip8_18_195)">
<path d="M78.6134 12.4479C78.6134 12.8335 78.2984 13.1458 77.9095 13.1458C77.5206 13.1458 77.2056 12.8335 77.2056 12.4479C77.2056 12.0623 77.5206 11.75 77.9095 11.75C78.2984 11.75 78.6134 12.0623 78.6134 12.4479Z" fill="#3559C1"/>
<path d="M65.1515 15.2395H90.669C92.9497 15.2395 94.8038 13.3998 94.8038 11.14V4.7711C94.8038 4.38447 94.4885 4.07321 94.0999 4.07321H84.9488C84.9488 1.76459 83.0538 -0.114136 80.7252 -0.114136H75.0938C72.7666 -0.114136 70.8702 1.76319 70.8702 4.07321H61.7191C61.332 4.07321 61.0152 4.38447 61.0152 4.7711V11.0521C61.0152 13.3998 62.8708 15.2395 65.1515 15.2395ZM77.9095 14.5416C76.7452 14.5416 75.7977 13.6036 75.7977 12.4479C75.7977 11.2922 76.7452 10.3542 77.9095 10.3542C79.0756 10.3542 80.0213 11.2936 80.0213 12.4479C80.0213 13.6022 79.0756 14.5416 77.9095 14.5416ZM75.0938 1.28165H80.7252C82.2795 1.28165 83.541 2.53227 83.541 4.07321H72.2781C72.2781 2.53366 73.5395 1.28165 75.0938 1.28165Z" fill="#3559C1"/>
<path d="M90.669 16.6352H65.1515C63.5001 16.6352 62.0317 15.9024 61.0152 14.7621V27.1036C61.0152 27.4874 61.3306 27.8015 61.7191 27.8015H94.0999C94.4871 27.8015 94.8038 27.4874 94.8038 27.1036V14.7621C93.787 15.9024 92.3186 16.6352 90.669 16.6352Z" fill="#3559C1"/>
</g>
<g clip-path="url(#clip9_18_195)">
<path d="M121.594 22.1795H116.241V16.17C116.241 15.4268 116.271 14.6627 116.329 13.8776C116.385 13.0957 116.445 12.4382 116.51 11.9051C116.575 11.372 116.616 11.0328 116.632 10.8874H116.535L113.431 22.1795H109.202L106.074 10.9116H105.976C105.992 11.057 106.038 11.3914 106.113 11.9148C106.184 12.4415 106.253 13.0957 106.318 13.8776C106.383 14.6627 106.416 15.4268 106.416 16.17V22.1795H101.454V5.50789H109.08L111.622 15.128H111.72L114.237 5.50789H121.594V22.1795ZM141.856 22.1795H136.137L135.428 19.829H129.538L128.829 22.1795H123.305L129.44 5.50789H135.721L141.856 22.1795ZM132.446 10.1604L130.662 16.0973H134.304L132.544 10.1604H132.446ZM160.627 22.1795H155.91L148.847 14.086V22.1795H143.885V5.50789H148.602L155.666 13.7225V5.50789H160.627V22.1795ZM180.983 22.1795H175.263L174.554 19.829H168.664L167.955 22.1795H162.431L168.566 5.50789H174.848L180.983 22.1795ZM171.572 10.1604L169.788 16.0973H173.43L171.67 10.1604H171.572ZM191.028 5.2171C192.641 5.2171 194.091 5.45942 195.379 5.94406C196.666 6.4287 197.689 7.14274 198.449 8.08617C199.205 9.03283 199.583 10.1847 199.583 11.5416H194.425C194.425 10.847 194.116 10.2848 193.497 9.8551C192.877 9.42862 192.128 9.21538 191.248 9.21538C189.977 9.21538 189.016 9.54978 188.364 10.2186C187.712 10.8906 187.386 11.8405 187.386 13.0683V14.6191C187.386 15.8469 187.712 16.7951 188.364 17.4639C189.016 18.136 189.977 18.472 191.248 18.472C192.128 18.472 192.877 18.2652 193.497 17.8517C194.116 17.4413 194.425 16.9131 194.425 16.2669H190.613V12.8744H199.583V22.1795H196.796L196.259 20.5317C194.727 21.8241 192.723 22.4703 190.246 22.4703C187.46 22.4703 185.366 21.7465 183.964 20.2991C182.563 18.8549 181.862 16.7031 181.862 13.8437C181.862 11.0166 182.658 8.87128 184.248 7.40767C185.835 5.94729 188.095 5.2171 191.028 5.2171ZM202.931 22.1795V5.50789H217.474V9.50616H208.333V11.8082H216.154V15.6369H208.333V18.1812H217.645V22.1795H202.931Z" fill="#3559C1"/>
</g>
</g>
</g>
<g clip-path="url(#clip10_18_195)">
<g clip-path="url(#clip11_18_195)">
<path d="M67.8685 40.227C67.7463 40.227 67.6456 40.1892 67.5665 40.1136C67.4874 40.0395 67.4478 39.9418 67.4478 39.8206V36.7406C67.4478 36.2344 67.3148 35.833 67.0487 35.5364C66.7826 35.2412 66.441 35.0936 66.0239 35.0936C65.5781 35.0936 65.2134 35.2412 64.9301 35.5364C64.6453 35.833 64.5065 36.2273 64.5137 36.7192H63.7694C63.7766 36.2415 63.8809 35.8209 64.0822 35.4572C64.2836 35.0936 64.5605 34.812 64.9128 34.6124C65.2652 34.4127 65.6644 34.3129 66.1102 34.3129C66.5345 34.3129 66.9106 34.4127 67.2385 34.6124C67.565 34.812 67.8203 35.0936 68.0044 35.4572C68.1871 35.8209 68.2784 36.2486 68.2784 36.7406V39.8206C68.2784 39.9418 68.241 40.0395 68.1662 40.1136C68.09 40.1892 67.9908 40.227 67.8685 40.227ZM60.3175 40.227C60.1881 40.227 60.086 40.1892 60.0112 40.1136C59.935 40.0395 59.8969 39.9418 59.8969 39.8206V34.7942C59.8969 34.673 59.935 34.5732 60.0112 34.4947C60.086 34.4163 60.1881 34.3771 60.3175 34.3771C60.4398 34.3771 60.539 34.4163 60.6153 34.4947C60.6901 34.5732 60.7275 34.673 60.7275 34.7942V39.8206C60.7275 39.9418 60.6901 40.0395 60.6153 40.1136C60.539 40.1892 60.4398 40.227 60.3175 40.227ZM64.1038 40.227C63.9816 40.227 63.8809 40.1892 63.8018 40.1136C63.7227 40.0395 63.6831 39.9418 63.6831 39.8206V36.7406C63.6831 36.2344 63.5501 35.833 63.284 35.5364C63.0179 35.2412 62.6763 35.0936 62.2592 35.0936C61.8134 35.0936 61.4466 35.2377 61.1589 35.5257C60.8713 35.8152 60.7275 36.1916 60.7275 36.655H60.1342C60.1485 36.1987 60.2514 35.7938 60.4427 35.4401C60.6325 35.0879 60.8929 34.812 61.2237 34.6124C61.5545 34.4127 61.9284 34.3129 62.3455 34.3129C62.7698 34.3129 63.1459 34.4127 63.4739 34.6124C63.8003 34.812 64.0556 35.0936 64.2397 35.4572C64.4224 35.8209 64.5137 36.2486 64.5137 36.7406V39.8206C64.5137 39.9418 64.4763 40.0395 64.4015 40.1136C64.3253 40.1892 64.2261 40.227 64.1038 40.227ZM72.7119 40.2805C72.1582 40.2805 71.662 40.15 71.2233 39.8891C70.7846 39.6295 70.4373 39.2752 70.1813 38.826C69.9267 38.3769 69.7994 37.8706 69.7994 37.3074C69.7994 36.737 69.9303 36.2273 70.1921 35.7781C70.4553 35.3289 70.8134 34.9739 71.2664 34.7129C71.7195 34.4534 72.2301 34.3236 72.7982 34.3236C73.3663 34.3236 73.8748 34.4534 74.3235 34.7129C74.7737 34.9739 75.1297 35.3289 75.3914 35.7781C75.6546 36.2273 75.7898 36.737 75.797 37.3074L75.4626 37.5641C75.4626 38.0774 75.3418 38.5387 75.1002 38.9479C74.86 39.3586 74.5328 39.683 74.1186 39.9211C73.7058 40.1607 73.2369 40.2805 72.7119 40.2805ZM72.7982 39.5319C73.2153 39.5319 73.5871 39.4356 73.9136 39.2431C74.2415 39.0506 74.5004 38.7847 74.6903 38.4453C74.8816 38.1074 74.9772 37.7281 74.9772 37.3074C74.9772 36.8796 74.8816 36.4982 74.6903 36.1631C74.5004 35.828 74.2415 35.5621 73.9136 35.3653C73.5871 35.1699 73.2153 35.0722 72.7982 35.0722C72.3883 35.0722 72.0179 35.1699 71.6871 35.3653C71.3563 35.5621 71.0939 35.828 70.8997 36.1631C70.7055 36.4982 70.6084 36.8796 70.6084 37.3074C70.6084 37.7281 70.7055 38.1074 70.8997 38.4453C71.0939 38.7847 71.3563 39.0506 71.6871 39.2431C72.0179 39.4356 72.3883 39.5319 72.7982 39.5319ZM75.3763 40.227C75.2541 40.227 75.1534 40.1892 75.0743 40.1136C74.9952 40.0395 74.9556 39.9418 74.9556 39.8206V37.9919L75.1606 37.147L75.797 37.3074V39.8206C75.797 39.9418 75.7575 40.0395 75.6784 40.1136C75.5993 40.1892 75.4986 40.227 75.3763 40.227ZM82.4742 40.227C82.352 40.227 82.2513 40.1878 82.1722 40.1094C82.0931 40.0309 82.0535 39.9347 82.0535 39.8206V37.04C82.0535 36.598 81.9687 36.2344 81.799 35.9492C81.6307 35.664 81.4006 35.4501 81.1086 35.3075C80.8181 35.1649 80.4894 35.0936 80.1227 35.0936C79.7703 35.0936 79.4517 35.1614 79.1669 35.2968C78.8836 35.4323 78.6592 35.6177 78.4938 35.8529C78.3284 36.0882 78.2457 36.3556 78.2457 36.655H77.6524C77.6668 36.2059 77.789 35.8045 78.0192 35.4508C78.2493 35.0986 78.5549 34.8206 78.9361 34.6167C79.3172 34.4142 79.7415 34.3129 80.2089 34.3129C80.7195 34.3129 81.1762 34.4177 81.5789 34.6273C81.9816 34.8384 82.2995 35.1471 82.5325 35.5535C82.7669 35.9599 82.8841 36.4554 82.8841 37.04V39.8206C82.8841 39.9347 82.8446 40.0309 82.7655 40.1094C82.6864 40.1878 82.5893 40.227 82.4742 40.227ZM77.8358 40.227C77.7063 40.227 77.6035 40.1892 77.5273 40.1136C77.4525 40.0395 77.4151 39.9418 77.4151 39.8206V34.7942C77.4151 34.6658 77.4525 34.5639 77.5273 34.4883C77.6035 34.4142 77.7063 34.3771 77.8358 34.3771C77.958 34.3771 78.0566 34.4142 78.1314 34.4883C78.2076 34.5639 78.2457 34.6658 78.2457 34.7942V39.8206C78.2457 39.9418 78.2076 40.0395 78.1314 40.1136C78.0566 40.1892 77.958 40.227 77.8358 40.227ZM87.3155 40.2805C86.7617 40.2805 86.2655 40.15 85.8269 39.8891C85.3882 39.6295 85.0416 39.2752 84.787 38.826C84.531 38.3769 84.403 37.8706 84.403 37.3074C84.403 36.737 84.5346 36.2273 84.7978 35.7781C85.0595 35.3289 85.417 34.9739 85.87 34.7129C86.3231 34.4534 86.8337 34.3236 87.4018 34.3236C87.9699 34.3236 88.4791 34.4534 88.9292 34.7129C89.378 34.9739 89.734 35.3289 89.9972 35.7781C90.2589 36.2273 90.3934 36.737 90.4006 37.3074L90.0662 37.5641C90.0662 38.0774 89.9461 38.5387 89.7059 38.9479C89.4643 39.3586 89.1371 39.683 88.7243 39.9211C88.3101 40.1607 87.8405 40.2805 87.3155 40.2805ZM87.4018 39.5319C87.8189 39.5319 88.1914 39.4356 88.5193 39.2431C88.8458 39.0506 89.1047 38.7847 89.296 38.4453C89.4858 38.1074 89.5808 37.7281 89.5808 37.3074C89.5808 36.8796 89.4858 36.4982 89.296 36.1631C89.1047 35.828 88.8458 35.5621 88.5193 35.3653C88.1914 35.1699 87.8189 35.0722 87.4018 35.0722C86.9919 35.0722 86.6215 35.1699 86.2907 35.3653C85.9599 35.5621 85.6974 35.828 85.5033 36.1631C85.3091 36.4982 85.212 36.8796 85.212 37.3074C85.212 37.7281 85.3091 38.1074 85.5033 38.4453C85.6974 38.7847 85.9599 39.0506 86.2907 39.2431C86.6215 39.4356 86.9919 39.5319 87.4018 39.5319ZM89.9799 40.227C89.8576 40.227 89.757 40.1892 89.6779 40.1136C89.5988 40.0395 89.5592 39.9418 89.5592 39.8206V37.9919L89.7642 37.147L90.4006 37.3074V39.8206C90.4006 39.9418 90.361 40.0395 90.2819 40.1136C90.2028 40.1892 90.1022 40.227 89.9799 40.227ZM94.6183 40.2805C94.0502 40.2805 93.5468 40.1536 93.1082 39.8998C92.6695 39.6474 92.3265 39.2966 92.0791 38.8474C91.8302 38.3982 91.7058 37.8849 91.7058 37.3074C91.7058 36.7228 91.8353 36.2059 92.0942 35.7567C92.3531 35.3075 92.709 34.956 93.1621 34.7022C93.6151 34.4498 94.1293 34.3236 94.7046 34.3236C95.2871 34.3236 95.8035 34.4498 96.2537 34.7022C96.7024 34.956 97.0548 35.3075 97.3108 35.7567C97.5654 36.2059 97.6963 36.7228 97.7035 37.3074L97.218 37.5641C97.218 38.0917 97.1066 38.5601 96.8836 38.9693C96.6607 39.38 96.3536 39.7008 95.9624 39.9318C95.5698 40.1643 95.1217 40.2805 94.6183 40.2805ZM94.7262 42.537C94.1581 42.537 93.6583 42.4322 93.2268 42.2226C92.7953 42.0116 92.4394 41.7242 92.1589 41.3606C92.0798 41.2751 92.046 41.1824 92.0575 41.0826C92.0676 40.9828 92.1193 40.9008 92.2128 40.8366C92.3063 40.7724 92.4106 40.751 92.5257 40.7724C92.6407 40.7938 92.7306 40.8473 92.7953 40.9329C93.0039 41.1895 93.2721 41.3963 93.6 41.5531C93.9265 41.71 94.3055 41.7884 94.737 41.7884C95.1397 41.7884 95.5029 41.6922 95.8265 41.4997C96.1501 41.3072 96.4076 41.0362 96.5989 40.6869C96.7887 40.3375 96.8836 39.9276 96.8836 39.457V37.8314L97.1965 37.2112L97.7035 37.3074V39.4891C97.7035 40.0666 97.574 40.5856 97.3151 41.0462C97.0562 41.5054 96.7038 41.869 96.258 42.1371C95.8121 42.4037 95.3015 42.537 94.7262 42.537ZM94.7046 39.5319C95.1289 39.5319 95.505 39.437 95.833 39.2474C96.1595 39.0592 96.4162 38.7975 96.6032 38.4624C96.7901 38.1273 96.8836 37.7423 96.8836 37.3074C96.8836 36.8725 96.7901 36.4861 96.6032 36.1481C96.4162 35.8087 96.1595 35.5442 95.833 35.3546C95.505 35.1664 95.1289 35.0722 94.7046 35.0722C94.2803 35.0722 93.9028 35.1664 93.572 35.3546C93.2412 35.5442 92.9823 35.8087 92.7953 36.1481C92.6084 36.4861 92.5149 36.8725 92.5149 37.3074C92.5149 37.7423 92.6084 38.1273 92.7953 38.4624C92.9823 38.7975 93.2412 39.0592 93.572 39.2474C93.9028 39.437 94.2803 39.5319 94.7046 39.5319ZM101.997 40.2805C101.414 40.2805 100.898 40.1536 100.448 39.8998C99.999 39.6474 99.6466 39.2966 99.3906 38.8474C99.136 38.3982 99.0087 37.8849 99.0087 37.3074C99.0087 36.7228 99.1288 36.2073 99.369 35.761C99.6106 35.3161 99.9436 34.9653 100.368 34.7086C100.792 34.452 101.281 34.3236 101.835 34.3236C102.381 34.3236 102.858 34.4463 103.263 34.6915C103.67 34.9382 103.985 35.279 104.208 35.7139C104.431 36.1488 104.542 36.6443 104.542 37.2005C104.542 37.3145 104.507 37.4051 104.435 37.4721C104.363 37.5405 104.269 37.5748 104.154 37.5748H99.5696V36.8903H104.24L103.777 37.2218C103.784 36.8083 103.708 36.4376 103.55 36.1096C103.392 35.7816 103.167 35.525 102.875 35.3396C102.584 35.1542 102.238 35.0615 101.835 35.0615C101.425 35.0615 101.065 35.1578 100.756 35.3503C100.447 35.5428 100.208 35.8087 100.038 36.1481C99.8695 36.4861 99.7854 36.8725 99.7854 37.3074C99.7854 37.7423 99.8803 38.1273 100.07 38.4624C100.261 38.7975 100.522 39.0613 100.853 39.2538C101.184 39.4463 101.565 39.5426 101.997 39.5426C102.256 39.5426 102.516 39.4976 102.778 39.4078C103.041 39.3194 103.252 39.2075 103.41 39.072C103.489 39.0078 103.579 38.9736 103.68 38.9693C103.78 38.9665 103.866 38.9936 103.938 39.0506C104.032 39.1362 104.08 39.2289 104.083 39.3287C104.087 39.4285 104.046 39.514 103.96 39.5853C103.723 39.785 103.421 39.9504 103.054 40.0816C102.687 40.2142 102.335 40.2805 101.997 40.2805ZM113.914 40.227C113.792 40.227 113.692 40.1892 113.614 40.1136C113.535 40.0395 113.496 39.9418 113.496 39.8206V36.7406C113.496 36.2344 113.363 35.833 113.097 35.5364C112.831 35.2412 112.489 35.0936 112.072 35.0936C111.626 35.0936 111.261 35.2412 110.976 35.5364C110.691 35.833 110.553 36.2273 110.562 36.7192H109.815C109.824 36.2415 109.929 35.8209 110.13 35.4572C110.332 35.0936 110.608 34.812 110.961 34.6124C111.312 34.4127 111.711 34.3129 112.158 34.3129C112.582 34.3129 112.958 34.4127 113.284 34.6124C113.612 34.812 113.868 35.0936 114.05 35.4572C114.234 35.8209 114.326 36.2486 114.326 36.7406V39.8206C114.326 39.9418 114.288 40.0395 114.212 40.1136C114.137 40.1892 114.038 40.227 113.914 40.227ZM106.363 40.227C106.235 40.227 106.133 40.1892 106.057 40.1136C105.982 40.0395 105.945 39.9418 105.945 39.8206V34.7942C105.945 34.673 105.982 34.5732 106.057 34.4947C106.133 34.4163 106.235 34.3771 106.363 34.3771C106.487 34.3771 106.586 34.4163 106.661 34.4947C106.736 34.5732 106.773 34.673 106.773 34.7942V39.8206C106.773 39.9418 106.736 40.0395 106.661 40.1136C106.586 40.1892 106.487 40.227 106.363 40.227ZM110.152 40.227C110.03 40.227 109.928 40.1892 109.848 40.1136C109.77 40.0395 109.731 39.9418 109.731 39.8206V36.7406C109.731 36.2344 109.597 35.833 109.33 35.5364C109.064 35.2412 108.722 35.0936 108.305 35.0936C107.859 35.0936 107.492 35.2377 107.205 35.5257C106.917 35.8152 106.773 36.1916 106.773 36.655H106.18C106.194 36.1987 106.297 35.7938 106.488 35.4401C106.678 35.0879 106.939 34.812 107.272 34.6124C107.601 34.4127 107.974 34.3129 108.391 34.3129C108.817 34.3129 109.193 34.4127 109.52 34.6124C109.846 34.812 110.101 35.0936 110.286 35.4572C110.47 35.8209 110.562 36.2486 110.562 36.7406V39.8206C110.562 39.9418 110.524 40.0395 110.447 40.1136C110.371 40.1892 110.273 40.227 110.152 40.227ZM118.833 40.2805C118.251 40.2805 117.735 40.1536 117.286 39.8998C116.836 39.6474 116.484 39.2966 116.229 38.8474C115.973 38.3982 115.845 37.8849 115.845 37.3074C115.845 36.7228 115.966 36.2073 116.208 35.761C116.448 35.3161 116.78 34.9653 117.204 34.7086C117.629 34.452 118.118 34.3236 118.671 34.3236C119.218 34.3236 119.695 34.4463 120.102 34.6915C120.507 34.9382 120.822 35.279 121.045 35.7139C121.268 36.1488 121.379 36.6443 121.379 37.2005C121.379 37.3145 121.343 37.4051 121.271 37.4721C121.199 37.5405 121.106 37.5748 120.991 37.5748H116.406V36.8903H121.077L120.613 37.2218C120.62 36.8083 120.545 36.4376 120.387 36.1096C120.228 35.7816 120.004 35.525 119.713 35.3396C119.421 35.1542 119.074 35.0615 118.671 35.0615C118.261 35.0615 117.902 35.1578 117.593 35.3503C117.283 35.5428 117.045 35.8087 116.876 36.1481C116.707 36.4861 116.622 36.8725 116.622 37.3074C116.622 37.7423 116.718 38.1273 116.909 38.4624C117.099 38.7975 117.359 39.0613 117.69 39.2538C118.021 39.4463 118.402 39.5426 118.833 39.5426C119.092 39.5426 119.353 39.4976 119.616 39.4078C119.878 39.3194 120.088 39.2075 120.246 39.072C120.325 39.0078 120.415 38.9736 120.516 38.9693C120.617 38.9665 120.703 38.9936 120.775 39.0506C120.868 39.1362 120.917 39.2289 120.922 39.3287C120.924 39.4285 120.883 39.514 120.796 39.5853C120.559 39.785 120.257 39.9504 119.89 40.0816C119.524 40.2142 119.171 40.2805 118.833 40.2805ZM127.84 40.227C127.718 40.227 127.618 40.1878 127.538 40.1094C127.459 40.0309 127.42 39.9347 127.42 39.8206V37.04C127.42 36.598 127.336 36.2344 127.167 35.9492C126.998 35.664 126.767 35.4501 126.477 35.3075C126.185 35.1649 125.856 35.0936 125.489 35.0936C125.136 35.0936 124.819 35.1614 124.535 35.2968C124.25 35.4323 124.025 35.6177 123.86 35.8529C123.695 36.0882 123.612 36.3556 123.612 36.655H123.019C123.033 36.2059 123.155 35.8045 123.385 35.4508C123.615 35.0986 123.921 34.8206 124.302 34.6167C124.683 34.4142 125.108 34.3129 125.575 34.3129C126.086 34.3129 126.542 34.4177 126.945 34.6273C127.348 34.8384 127.666 35.1471 127.901 35.5535C128.134 35.9599 128.25 36.4554 128.25 37.04V39.8206C128.25 39.9347 128.211 40.0309 128.132 40.1094C128.053 40.1878 127.955 40.227 127.84 40.227ZM123.202 40.227C123.073 40.227 122.97 40.1892 122.893 40.1136C122.819 40.0395 122.781 39.9418 122.781 39.8206V34.7942C122.781 34.6658 122.819 34.5639 122.893 34.4883C122.97 34.4142 123.073 34.3771 123.202 34.3771C123.324 34.3771 123.423 34.4142 123.5 34.4883C123.575 34.5639 123.612 34.6658 123.612 34.7942V39.8206C123.612 39.9418 123.575 40.0395 123.5 40.1136C123.423 40.1892 123.324 40.227 123.202 40.227ZM132.619 40.227H132.393C132.011 40.227 131.671 40.1379 131.372 39.9596C131.074 39.7814 130.839 39.5376 130.667 39.2281C130.494 38.9173 130.408 38.5622 130.408 38.163V32.9333C130.408 32.8121 130.445 32.7123 130.52 32.6339C130.596 32.5555 130.695 32.5162 130.818 32.5162C130.94 32.5162 131.041 32.5555 131.12 32.6339C131.199 32.7123 131.238 32.8121 131.238 32.9333V38.163C131.238 38.5266 131.346 38.8239 131.562 39.0549C131.778 39.2873 132.055 39.4035 132.393 39.4035H132.684C132.799 39.4035 132.892 39.4427 132.964 39.5212C133.036 39.5996 133.072 39.6994 133.072 39.8206C133.072 39.9418 133.029 40.0395 132.943 40.1136C132.856 40.1892 132.749 40.227 132.619 40.227ZM132.457 35.3075H129.707C129.599 35.3075 129.509 35.2733 129.437 35.2049C129.365 35.1378 129.329 35.0544 129.329 34.9546C129.329 34.8477 129.365 34.76 129.437 34.6915C129.509 34.6245 129.599 34.591 129.707 34.591H132.457C132.565 34.591 132.655 34.6245 132.727 34.6915C132.799 34.76 132.835 34.8477 132.835 34.9546C132.835 35.0544 132.799 35.1378 132.727 35.2049C132.655 35.2733 132.565 35.3075 132.457 35.3075ZM140.114 40.227H139.887C139.506 40.227 139.167 40.1379 138.869 39.9596C138.57 39.7814 138.334 39.5376 138.162 39.2281C137.989 38.9173 137.903 38.5622 137.903 38.163V32.9333C137.903 32.8121 137.941 32.7123 138.017 32.6339C138.092 32.5555 138.19 32.5162 138.313 32.5162C138.435 32.5162 138.535 32.5555 138.615 32.6339C138.694 32.7123 138.733 32.8121 138.733 32.9333V38.163C138.733 38.5266 138.841 38.8239 139.057 39.0549C139.273 39.2873 139.549 39.4035 139.887 39.4035H140.179C140.294 39.4035 140.387 39.4427 140.459 39.5212C140.531 39.5996 140.567 39.6994 140.567 39.8206C140.567 39.9418 140.524 40.0395 140.438 40.1136C140.351 40.1892 140.243 40.227 140.114 40.227ZM139.952 35.3075H137.201C137.094 35.3075 137.004 35.2733 136.932 35.2049C136.86 35.1378 136.824 35.0544 136.824 34.9546C136.824 34.8477 136.86 34.76 136.932 34.6915C137.004 34.6245 137.094 34.591 137.201 34.591H139.952C140.06 34.591 140.15 34.6245 140.222 34.6915C140.294 34.76 140.33 34.8477 140.33 34.9546C140.33 35.0544 140.294 35.1378 140.222 35.2049C140.15 35.2733 140.06 35.3075 139.952 35.3075ZM144.601 40.2805C144.026 40.2805 143.512 40.1522 143.059 39.8955C142.606 39.6388 142.25 39.2859 141.991 38.8367C141.732 38.3875 141.603 37.8778 141.603 37.3074C141.603 36.7299 141.732 36.2166 141.991 35.7674C142.25 35.3182 142.606 34.9653 143.059 34.7086C143.512 34.452 144.026 34.3236 144.601 34.3236C145.177 34.3236 145.689 34.452 146.14 34.7086C146.588 34.9653 146.942 35.3182 147.201 35.7674C147.46 36.2166 147.593 36.7299 147.6 37.3074C147.6 37.8778 147.469 38.3875 147.208 38.8367C146.944 39.2859 146.588 39.6388 146.14 39.8955C145.689 40.1522 145.177 40.2805 144.601 40.2805ZM144.601 39.5319C145.019 39.5319 145.392 39.4356 145.723 39.2431C146.054 39.0506 146.313 38.7868 146.5 38.4517C146.687 38.1166 146.78 37.7352 146.78 37.3074C146.78 36.8796 146.687 36.496 146.5 36.1567C146.313 35.8187 146.054 35.5535 145.723 35.361C145.392 35.1685 145.019 35.0722 144.601 35.0722C144.184 35.0722 143.81 35.1685 143.48 35.361C143.149 35.5535 142.888 35.8187 142.699 36.1567C142.507 36.496 142.412 36.8796 142.412 37.3074C142.412 37.7352 142.507 38.1166 142.699 38.4517C142.888 38.7868 143.149 39.0506 143.48 39.2431C143.81 39.4356 144.184 39.5319 144.601 39.5319ZM151.904 40.2805C151.329 40.2805 150.815 40.1522 150.362 39.8955C149.909 39.6388 149.553 39.2859 149.294 38.8367C149.035 38.3875 148.905 37.8778 148.905 37.3074C148.905 36.7299 149.035 36.2166 149.294 35.7674C149.553 35.3182 149.909 34.9653 150.362 34.7086C150.815 34.452 151.329 34.3236 151.904 34.3236C152.48 34.3236 152.992 34.452 153.44 34.7086C153.891 34.9653 154.245 35.3182 154.504 35.7674C154.763 36.2166 154.896 36.7299 154.903 37.3074C154.903 37.8778 154.771 38.3875 154.508 38.8367C154.247 39.2859 153.891 39.6388 153.44 39.8955C152.992 40.1522 152.48 40.2805 151.904 40.2805ZM151.904 39.5319C152.321 39.5319 152.695 39.4356 153.026 39.2431C153.357 39.0506 153.616 38.7868 153.803 38.4517C153.99 38.1166 154.083 37.7352 154.083 37.3074C154.083 36.8796 153.99 36.496 153.803 36.1567C153.616 35.8187 153.357 35.5535 153.026 35.361C152.695 35.1685 152.321 35.0722 151.904 35.0722C151.487 35.0722 151.113 35.1685 150.782 35.361C150.452 35.5535 150.191 35.8187 149.999 36.1567C149.809 36.496 149.715 36.8796 149.715 37.3074C149.715 37.7352 149.809 38.1166 149.999 38.4517C150.191 38.7868 150.452 39.0506 150.782 39.2431C151.113 39.4356 151.487 39.5319 151.904 39.5319ZM157.934 40.227H157.794C157.506 40.227 157.249 40.1486 157.022 39.9917C156.796 39.8349 156.62 39.6174 156.493 39.3394C156.368 39.0613 156.305 38.7405 156.305 38.3769V32.281C156.305 32.1598 156.343 32.0614 156.418 31.9858C156.494 31.9116 156.593 31.8746 156.715 31.8746C156.838 31.8746 156.936 31.9116 157.011 31.9858C157.087 32.0614 157.125 32.1598 157.125 32.281V38.3769C157.125 38.6834 157.188 38.933 157.313 39.1255C157.44 39.318 157.6 39.4142 157.794 39.4142H158.064C158.172 39.4142 158.258 39.4513 158.323 39.5254C158.387 39.601 158.42 39.6994 158.42 39.8206C158.42 39.9418 158.374 40.0395 158.284 40.1136C158.195 40.1892 158.078 40.227 157.934 40.227Z" fill="#3559C1"/>
</g>
</g>
</g>
</g>
</g>
</g>
</g>
<defs>
<clipPath id="clip0_18_195">
<rect width="218.316" height="42.4229" fill="white"/>
</clipPath>
<clipPath id="clip1_18_195">
<rect width="216.978" height="42.6511" fill="white" transform="translate(0.669067 -0.114136)"/>
</clipPath>
<clipPath id="clip2_18_195">
<rect width="216.978" height="42.6511" fill="white" transform="translate(0.669067 -0.114136)"/>
</clipPath>
<clipPath id="clip3_18_195">
<rect width="216.978" height="42.6511" fill="white" transform="translate(0.669067 -0.114136)"/>
</clipPath>
<clipPath id="clip4_18_195">
<rect width="216.978" height="42.6511" fill="white" transform="translate(0.669067 -0.114136)"/>
</clipPath>
<clipPath id="clip5_18_195">
<rect width="216.978" height="27.9156" fill="white" transform="translate(0.669067 -0.114136)"/>
</clipPath>
<clipPath id="clip6_18_195">
<rect width="216.978" height="27.9156" fill="white" transform="translate(0.669067 -0.114136)"/>
</clipPath>
<clipPath id="clip7_18_195">
<rect width="53.6984" height="17.2532" fill="white" transform="translate(0.669067 5.2171)"/>
</clipPath>
<clipPath id="clip8_18_195">
<rect width="33.7887" height="27.9156" fill="white" transform="translate(61.0152 -0.114136)"/>
</clipPath>
<clipPath id="clip9_18_195">
<rect width="116.196" height="17.2532" fill="white" transform="translate(101.452 5.2171)"/>
</clipPath>
<clipPath id="clip10_18_195">
<rect width="98.5293" height="10.6625" fill="white" transform="translate(59.8936 31.8746)"/>
</clipPath>
<clipPath id="clip11_18_195">
<rect width="98.5293" height="10.6625" fill="white" transform="translate(59.8936 31.8746)"/>
</clipPath>
</defs>
</svg>
